<?xml version="1.0" standalone="no"?>
<!DOCTYPE svg PUBLIC "-//W3C//DTD SVG 20010904//EN"
 "http://www.w3.org/TR/2001/REC-SVG-20010904/DTD/svg10.dtd">
<svg version="1.0" xmlns="http://www.w3.org/2000/svg"
 width="700.000000pt" height="700.000000pt" viewBox="0 0 700.000000 700.000000"
 preserveAspectRatio="xMidYMid meet">
<metadata>
Created by potrace 1.14, written by Peter Selinger 2001-2017
</metadata>
<g transform="translate(0.000000,700.000000) scale(0.100000,-0.100000)"
fill="#000000" stroke="none">
<path d="M1117 6414 c-1 -1 -26 -5 -56 -8 -85 -10 -221 -79 -296 -151 -79 -76
-146 -196 -169 -306 -11 -52 -13 -497 -11 -2474 2 -2276 3 -2413 20 -2465 19
-62 57 -139 89 -184 65 -93 192 -182 316 -222 52 -16 169 -17 1857 -19 l1801
-2 874 874 873 873 1 1783 c1 1468 -1 1792 -13 1840 -42 183 -155 326 -317
403 -40 19 -86 37 -101 40 -16 3 -33 8 -39 12 -9 6 -4822 12 -4829 6z"/>
</g>
</svg>
